<svg width="480" height="533" viewBox="0 0 480 533" fill="none" xmlns="http://www.w3.org/2000/svg">
<path d="M255.53 4.30816C260.047 7.42492 264.291 10.8317 268.53 14.3082C269.84 15.3725 271.15 16.4363 272.46 17.4996C274.505 19.1603 276.548 20.8226 278.587 22.4896C282.685 25.8338 286.824 29.1017 291.03 32.3082C296.646 36.5894 302.123 41.0216 307.589 45.4918C311.686 48.8342 315.825 52.1022 320.03 55.3082C327.065 60.6736 333.906 66.2671 340.757 71.8629C346.337 76.4115 351.979 80.88 357.647 85.3189C363.337 89.7767 368.982 94.2791 374.565 98.8707C383.132 105.914 391.722 112.926 400.468 119.746C406.47 124.427 412.344 129.254 418.205 134.11C422.678 137.808 427.198 141.433 431.78 144.996C436.933 149.004 441.945 153.148 446.909 157.386C452.442 162.104 458.03 166.791 463.937 171.039C471.239 176.357 476.204 182.462 478.53 191.308C478.828 195.185 478.809 199.052 478.798 202.938C478.802 204.117 478.807 205.296 478.811 206.51C478.822 209.774 478.823 213.038 478.821 216.302C478.821 219.826 478.832 223.35 478.841 226.873C478.858 233.776 478.863 240.678 478.864 247.581C478.865 253.196 478.869 258.811 478.876 264.426C478.893 280.363 478.903 296.299 478.901 312.235C478.901 313.094 478.901 313.953 478.901 314.838C478.901 315.698 478.901 316.558 478.901 317.444C478.9 331.363 478.919 345.281 478.947 359.199C478.976 373.507 478.99 387.814 478.988 402.121C478.987 410.147 478.993 418.173 479.014 426.199C479.033 433.037 479.037 439.874 479.023 446.712C479.017 450.195 479.017 453.679 479.034 457.162C479.124 479.218 478.122 499.105 461.718 515.746C450.434 526.642 436.693 532.418 420.925 532.442C420.284 532.445 419.642 532.447 418.982 532.45C416.836 532.456 414.691 532.456 412.546 532.455C410.991 532.459 409.436 532.462 407.881 532.466C403.61 532.476 399.338 532.48 395.067 532.483C390.46 532.487 385.852 532.496 381.245 532.505C370.119 532.525 358.993 532.535 347.868 532.544C342.626 532.548 337.384 532.554 332.142 532.559C314.714 532.576 297.285 532.59 279.856 532.598C275.335 532.599 270.814 532.601 266.293 532.603C264.607 532.604 264.607 532.604 262.888 532.605C244.687 532.613 226.487 532.638 208.286 532.671C189.592 532.704 170.898 532.722 152.204 532.725C141.711 532.727 131.218 532.736 120.725 532.762C111.789 532.783 102.853 532.791 93.9166 532.782C89.36 532.777 84.8037 532.779 80.2471 532.798C76.0689 532.816 71.8911 532.815 67.7129 532.8C66.2081 532.797 64.7034 532.801 63.1986 532.813C46.1769 532.94 31.31 528.479 18.8467 516.621C18.0823 515.858 17.3179 515.094 16.5303 514.308C15.8793 513.669 15.2284 513.029 14.5576 512.371C3.20325 500.392 0.0538432 484.814 0.142624 468.796C0.137238 467.607 0.131846 466.418 0.126297 465.193C0.114568 461.933 0.11605 458.674 0.123474 455.414C0.12824 451.883 0.115663 448.352 0.105453 444.821C0.0883308 437.921 0.0874116 431.021 0.0926666 424.12C0.0967198 418.511 0.0952529 412.902 0.08992 407.292C0.0891716 406.492 0.0884176 405.691 0.0876465 404.867C0.0861149 403.24 0.0845834 401.614 0.0830383 399.987C0.0693383 384.765 0.0747385 369.544 0.0862274 354.322C0.0961694 340.406 0.0831852 326.491 0.0592804 312.575C0.0348844 298.265 0.0252855 283.956 0.0319366 269.646C0.0354262 261.62 0.0332141 253.595 0.015686 245.569C0.000958285 238.742 0.00034094 231.914 0.0177612 225.087C0.0262667 221.606 0.0284296 218.126 0.0131073 214.645C-7.43801e-05 210.867 0.0114215 207.09 0.0290985 203.312C0.0194935 202.219 0.00989606 201.126 0 199.999C0.0919018 190.447 2.7758 183.488 9.28812 176.472C16.3352 169.671 24.0842 163.601 31.753 157.523C35.2839 154.707 38.7805 151.85 42.2803 148.996C47.3037 144.902 52.3572 140.855 57.4678 136.871C64.1543 131.653 70.6926 126.263 77.2295 120.859C86.8061 112.944 96.4497 105.118 106.242 97.4715C110.715 93.9701 115.129 90.3998 119.53 86.8082C125.056 82.2989 130.625 77.8554 136.248 73.4678C140.661 70.0144 145.007 66.4832 149.343 62.9332C154.803 58.4664 160.342 54.1275 165.968 49.8707C172.568 44.8729 178.99 39.6936 185.359 34.4048C191.421 29.3765 197.587 24.4973 203.802 19.6612C205.62 18.2378 207.426 16.8001 209.23 15.3589C223.304 4.13453 237.571 -6.05791 255.53 4.30816Z" fill="#114260"/>
<path d="M238.53 43.3082C241.315 44.6058 243.603 46.035 245.964 47.9957C246.606 48.5242 247.248 49.0527 247.909 49.5972C248.589 50.1618 249.268 50.7264 249.968 51.3082C254.931 55.3902 259.916 59.4166 265.03 63.3082C270.737 67.659 276.307 72.1603 281.866 76.6983C285.945 80.0271 290.052 83.311 294.222 86.5269C303.884 93.982 313.4 101.609 322.858 109.32C325.736 111.665 328.627 113.994 331.53 116.308C335.109 119.16 338.663 122.042 342.21 124.933C347.945 129.608 353.699 134.253 359.53 138.808C366.587 144.322 373.533 149.967 380.472 155.629C383.946 158.463 387.426 161.292 390.905 164.121C391.581 164.67 392.256 165.219 392.952 165.784C397.236 169.264 401.538 172.721 405.855 176.16C407.99 177.874 410.116 179.599 412.237 181.332C412.913 181.883 413.59 182.435 414.286 183.003C415.595 184.072 416.902 185.142 418.208 186.214C418.836 186.727 419.465 187.241 420.112 187.769C420.743 188.3 421.374 188.83 422.024 189.376C424.573 191.418 424.573 191.418 427.743 193.238C432.871 196.424 436.799 199.124 438.768 205.003C439.428 209.475 439.367 213.947 439.32 218.457C439.349 220.178 439.384 221.899 439.424 223.619C439.513 228.269 439.522 232.915 439.511 237.565C439.511 241.455 439.551 245.343 439.592 249.233C439.688 258.41 439.719 267.586 439.707 276.763C439.696 286.218 439.782 295.667 439.919 305.12C440.033 313.253 440.093 321.385 440.107 329.518C440.116 334.369 440.144 339.218 440.223 344.068C440.294 348.629 440.296 353.185 440.245 357.746C440.238 359.415 440.254 361.084 440.297 362.752C440.587 374.982 440.587 374.982 437.166 378.852C433.323 382.07 429.046 384.188 424.53 386.308C422.653 387.317 420.777 388.329 418.905 389.347C417.121 390.224 415.329 391.085 413.53 391.933C412.553 392.395 411.576 392.856 410.569 393.332C396.806 399.663 382.534 403.802 367.78 407.121C366.919 407.316 366.058 407.511 365.171 407.712C350.391 410.827 335.472 411.691 320.405 411.621C319.606 411.619 318.807 411.618 317.984 411.616C297.367 411.547 277.653 408.693 257.53 404.308C258.86 401.407 260.34 399.181 262.468 396.808C263.085 396.117 263.703 395.426 264.339 394.714C267.378 391.377 270.429 388.05 273.483 384.728C280.289 377.318 286.811 369.669 293.347 362.023C295.428 359.59 297.519 357.166 299.62 354.75C306.218 347.147 312.55 339.409 318.53 331.308C319.234 330.359 319.234 330.359 319.952 329.392C343.295 297.721 357.75 264.718 353.214 224.503C351.647 214.722 348.541 205.352 344.53 196.308C344.101 195.327 343.672 194.346 343.23 193.336C330.542 166.21 307.434 146.502 279.53 136.308C251.091 126.027 220.081 126.509 192.464 139.128C178.831 145.598 167.259 153.744 156.53 164.308C155.359 165.443 155.359 165.443 154.163 166.601C134.215 187.223 124.829 215.516 125.196 243.74C126.391 288.689 152.935 323.817 181.108 356.648C182.578 358.364 184.041 360.088 185.503 361.812C191.235 368.557 197.079 375.152 203.155 381.589C205.597 384.384 207.544 387.182 209.53 390.308C208.665 390.089 207.8 389.87 206.909 389.644C203.333 388.744 199.754 387.854 196.175 386.967C194.356 386.514 192.538 386.056 190.722 385.594C170.717 380.513 150.246 375.849 129.53 375.308C128.779 375.282 128.027 375.257 127.253 375.23C99.4049 374.361 72.8099 378.438 46.7412 388.171C43.5303 389.308 43.5303 389.308 41.5303 389.308C41.2966 365.082 41.1203 340.856 41.0122 316.629C40.9606 305.38 40.8904 294.131 40.7759 282.882C40.6762 273.076 40.6117 263.271 40.5894 253.464C40.5764 248.273 40.5458 243.082 40.473 237.891C40.4049 233.001 40.3842 228.114 40.3992 223.223C40.3965 221.432 40.3767 219.641 40.3382 217.85C40.0626 204.344 40.0626 204.344 43.7045 199.293C46.2054 197.01 48.6912 195.144 51.5303 193.308C52.7584 192.332 53.9786 191.345 55.1826 190.339C56.2751 189.492 57.3701 188.648 58.4678 187.808C59.6781 186.869 60.8877 185.929 62.0967 184.988C62.6808 184.534 63.2649 184.08 63.8667 183.612C67.1437 181.044 70.3499 178.39 73.5655 175.746C82.7143 168.224 91.9055 160.762 101.241 153.473C105.714 149.971 110.129 146.4 114.53 142.808C119.493 138.758 124.482 134.75 129.53 130.808C136.043 125.722 142.454 120.517 148.858 115.296C152.506 112.324 156.179 109.385 159.858 106.453C162.653 104.209 165.432 101.948 168.21 99.6832C174.504 94.5532 180.832 89.4773 187.231 84.4796C193.163 79.836 198.996 75.0749 204.835 70.316C209.375 66.6157 213.95 62.9586 218.53 59.3082C220.197 57.9752 221.864 56.6418 223.53 55.3082C231.03 49.3082 231.03 49.3082 238.53 43.3082Z" fill="#F8F5F1"/>
<path d="M109.097 415.07C109.884 415.06 110.672 415.05 111.483 415.04C129.229 414.863 146.172 415.234 163.53 419.308C164.667 419.566 165.804 419.824 166.976 420.089C183.573 423.895 199.898 428.528 216.218 433.371C290.754 455.48 363.418 460.164 434.67 424.191C436.53 423.308 436.53 423.308 437.53 423.308C437.632 430.994 437.702 438.68 437.75 446.367C437.77 448.98 437.797 451.593 437.832 454.206C437.881 457.969 437.903 461.732 437.921 465.496C437.942 466.657 437.962 467.819 437.983 469.016C437.985 475.943 437.27 480.425 433.53 486.308C428.6 491.112 423.985 492.557 417.19 492.565C415.903 492.572 414.616 492.578 413.29 492.585C411.864 492.582 410.438 492.579 409.012 492.576C407.496 492.579 405.979 492.584 404.463 492.589C400.293 492.602 396.124 492.601 391.955 492.599C387.46 492.599 382.964 492.61 378.468 492.619C369.66 492.636 360.851 492.641 352.043 492.642C344.883 492.643 337.724 492.647 330.564 492.654C310.27 492.671 289.976 492.681 269.682 492.679C268.588 492.679 267.493 492.679 266.366 492.679C265.27 492.679 264.175 492.679 263.046 492.679C245.288 492.678 227.53 492.697 209.772 492.725C191.543 492.754 173.313 492.768 155.084 492.766C144.848 492.765 134.612 492.771 124.375 492.792C115.66 492.81 106.945 492.815 98.2303 492.801C93.7837 492.795 89.3374 492.795 84.8908 492.812C80.8189 492.828 76.7474 492.825 72.6755 492.807C71.2038 492.804 69.732 492.808 68.2603 492.819C60.2825 492.875 54.2894 492.773 47.5303 488.308C43.6522 484.226 41.3202 480.471 41.1763 474.803C41.1506 473.918 41.125 473.034 41.0985 472.122C41.0837 471.174 41.069 470.226 41.0537 469.25C41.0376 468.268 41.0215 467.287 41.0048 466.276C40.9772 464.202 40.9557 462.129 40.94 460.055C40.9055 456.884 40.8177 453.718 40.7295 450.548C40.7093 448.532 40.6922 446.516 40.6787 444.5C40.6437 443.554 40.6087 442.608 40.5726 441.633C40.6149 435.22 40.6149 435.22 43.206 432.639C45.2632 431.32 47.29 430.28 49.5303 429.308C50.3562 428.905 51.1821 428.501 52.033 428.086C54.423 427.145 56.8129 426.21 59.2178 425.308C60.1205 424.967 61.0231 424.626 61.9532 424.275C77.2055 418.694 92.84 415.239 109.097 415.07Z" fill="#FCC27D"/>
<path d="M287.632 185.746C301.204 197.278 312.199 214.1 313.782 232.183C315.761 272.9 292.897 301.533 267.37 331C264.84 333.929 262.395 336.918 259.968 339.933C255.849 345.014 251.473 349.804 247.011 354.582C244.736 357.082 242.609 359.643 240.53 362.308C237.632 361.016 235.764 359.743 233.718 357.324C233.206 356.726 232.694 356.127 232.167 355.511C231.627 354.867 231.087 354.222 230.53 353.558C229.961 352.889 229.391 352.219 228.804 351.529C227.621 350.138 226.44 348.745 225.262 347.35C223.653 345.453 222.03 343.571 220.398 341.695C214.026 334.363 207.909 326.872 201.98 319.178C200.457 317.214 198.917 315.265 197.374 313.316C177.004 287.395 162.244 262.623 165.929 228.632C168.322 216.155 175.004 203.663 183.53 194.308C184.257 193.49 184.984 192.671 185.733 191.828C212.596 163.189 257.312 161.917 287.632 185.746Z" fill="#FDC37D"/>
<path d="M255.327 213.933C263.759 219.196 269.606 225.664 272.53 235.308C274.181 245.68 272.826 255.368 266.612 263.96C260.625 271.177 253.892 275.85 244.53 277.308C233.526 278.258 225.737 276.293 217.218 269.183C211.314 263.576 206.896 256.311 206.292 248.05C206.143 240.286 206.392 234.095 210.53 227.308C211.128 226.256 211.727 225.204 212.343 224.121C222.466 211.105 240.162 206.505 255.327 213.933Z" fill="#124261"/>
<path d="M238.53 43.3082C241.415 44.6012 243.402 45.9676 245.53 48.3082C244.973 48.1638 244.417 48.0194 243.843 47.8707C241.416 47.2805 238.981 46.7847 236.53 46.3082C237.19 45.3182 237.85 44.3282 238.53 43.3082ZM234.53 46.3082C235.19 46.6382 235.85 46.9682 236.53 47.3082C235.54 47.3082 234.55 47.3082 233.53 47.3082C233.86 46.9782 234.19 46.6482 234.53 46.3082Z" fill="#EBF0F1"/>
<path d="M60.5303 384.308C58.2203 385.628 55.9103 386.948 53.5303 388.308C52.5403 387.648 51.5503 386.988 50.5303 386.308C57.1553 383.183 57.1553 383.183 60.5303 384.308Z" fill="#0A294B"/>
</svg>
